<svg width="165" height="26" viewBox="0 0 165 26" fill="none" xmlns="http://www.w3.org/2000/svg">
<path d="M0.0778751 3.1H5.26188V21.276H16.4939V25.5H0.0778751V3.1ZM19.0384 8.284H24.0304V25.5H19.0384V8.284ZM21.5344 5.884C20.617 5.884 19.8704 5.61733 19.2944 5.084C18.7184 4.55067 18.4304 3.88933 18.4304 3.1C18.4304 2.31067 18.7184 1.64933 19.2944 1.116C19.8704 0.582665 20.617 0.315998 21.5344 0.315998C22.4517 0.315998 23.1984 0.571999 23.7744 1.084C24.3504 1.596 24.6384 2.236 24.6384 3.004C24.6384 3.836 24.3504 4.52933 23.7744 5.084C23.1984 5.61733 22.4517 5.884 21.5344 5.884ZM39.1274 8.028C41.2607 8.028 42.978 8.668 44.2794 9.948C45.602 11.228 46.2634 13.1267 46.2634 15.644V25.5H41.2714V16.412C41.2714 15.0467 40.9727 14.0333 40.3754 13.372C39.778 12.6893 38.914 12.348 37.7834 12.348C36.5247 12.348 35.522 12.7427 34.7754 13.532C34.0287 14.3 33.6554 15.452 33.6554 16.988V25.5H28.6634V8.284H33.4314V10.3C34.0927 9.57467 34.914 9.02 35.8954 8.636C36.8767 8.23067 37.954 8.028 39.1274 8.028ZM58.1804 18.748L55.7804 21.116V25.5H50.7884V1.756H55.7804V15.196L63.0764 8.284H69.0284L61.8604 15.58L69.6684 25.5H63.6204L58.1804 18.748ZM79.6254 25.884C77.8547 25.884 76.1374 25.6493 74.4734 25.18C72.8307 24.6893 71.508 24.06 70.5054 23.292L72.2654 19.388C73.2254 20.092 74.3667 20.6573 75.6894 21.084C77.012 21.5107 78.3347 21.724 79.6574 21.724C81.1294 21.724 82.2174 21.5107 82.9214 21.084C83.6254 20.636 83.9774 20.0493 83.9774 19.324C83.9774 18.7907 83.764 18.3533 83.3374 18.012C82.932 17.6493 82.3987 17.3613 81.7374 17.148C81.0974 16.9347 80.2227 16.7 79.1134 16.444C77.4067 16.0387 76.0094 15.6333 74.9214 15.228C73.8334 14.8227 72.8947 14.172 72.1054 13.276C71.3374 12.38 70.9534 11.1853 70.9534 9.692C70.9534 8.39067 71.3054 7.21733 72.0094 6.172C72.7134 5.10533 73.7694 4.26267 75.1774 3.644C76.6067 3.02533 78.3454 2.716 80.3934 2.716C81.8227 2.716 83.22 2.88667 84.5854 3.228C85.9507 3.56933 87.1454 4.06 88.1694 4.7L86.5694 8.636C84.5 7.46267 82.4307 6.876 80.3614 6.876C78.9107 6.876 77.8334 7.11067 77.1294 7.58C76.4467 8.04933 76.1054 8.668 76.1054 9.436C76.1054 10.204 76.5 10.78 77.2894 11.164C78.1 11.5267 79.3267 11.8893 80.9694 12.252C82.676 12.6573 84.0734 13.0627 85.1614 13.468C86.2494 13.8733 87.1774 14.5133 87.9454 15.388C88.7347 16.2627 89.1294 17.4467 89.1294 18.94C89.1294 20.22 88.7667 21.3933 88.0414 22.46C87.3374 23.5053 86.2707 24.3373 84.8414 24.956C83.412 25.5747 81.6734 25.884 79.6254 25.884ZM102.784 8.028C104.917 8.028 106.634 8.668 107.936 9.948C109.258 11.228 109.92 13.1267 109.92 15.644V25.5H104.928V16.412C104.928 15.0467 104.629 14.0333 104.032 13.372C103.434 12.6893 102.57 12.348 101.44 12.348C100.181 12.348 99.1783 12.7427 98.4316 13.532C97.685 14.3 97.3116 15.452 97.3116 16.988V25.5H92.3196V1.756H97.3116V10.076C97.973 9.41467 98.773 8.91333 99.7116 8.572C100.65 8.20933 101.674 8.028 102.784 8.028ZM121.389 8.028C124.055 8.028 126.103 8.668 127.533 9.948C128.962 11.2067 129.677 13.116 129.677 15.676V25.5H125.005V23.356C124.066 24.956 122.317 25.756 119.757 25.756C118.434 25.756 117.282 25.532 116.301 25.084C115.341 24.636 114.605 24.0173 114.093 23.228C113.581 22.4387 113.325 21.5427 113.325 20.54C113.325 18.94 113.922 17.6813 115.117 16.764C116.333 15.8467 118.199 15.388 120.717 15.388H124.685C124.685 14.3 124.354 13.468 123.693 12.892C123.031 12.2947 122.039 11.996 120.717 11.996C119.799 11.996 118.893 12.1453 117.997 12.444C117.122 12.7213 116.375 13.1053 115.757 13.596L113.965 10.108C114.903 9.44667 116.023 8.93467 117.325 8.572C118.647 8.20933 120.002 8.028 121.389 8.028ZM121.005 22.396C121.858 22.396 122.615 22.204 123.277 21.82C123.938 21.4147 124.407 20.828 124.685 20.06V18.3H121.261C119.213 18.3 118.189 18.972 118.189 20.316C118.189 20.956 118.434 21.468 118.925 21.852C119.437 22.2147 120.13 22.396 121.005 22.396ZM138.963 10.556C139.56 9.724 140.36 9.09467 141.363 8.668C142.387 8.24133 143.56 8.028 144.883 8.028V12.636C144.328 12.5933 143.955 12.572 143.763 12.572C142.333 12.572 141.213 12.9773 140.403 13.788C139.592 14.5773 139.187 15.772 139.187 17.372V25.5H134.195V8.284H138.963V10.556ZM164.559 16.956C164.559 17.02 164.527 17.468 164.463 18.3H151.439C151.673 19.3667 152.228 20.2093 153.103 20.828C153.977 21.4467 155.065 21.756 156.367 21.756C157.263 21.756 158.052 21.628 158.735 21.372C159.439 21.0947 160.089 20.668 160.687 20.092L163.343 22.972C161.721 24.828 159.353 25.756 156.239 25.756C154.297 25.756 152.58 25.3827 151.087 24.636C149.593 23.868 148.441 22.812 147.631 21.468C146.82 20.124 146.415 18.5987 146.415 16.892C146.415 15.2067 146.809 13.692 147.599 12.348C148.409 10.9827 149.508 9.92667 150.895 9.18C152.303 8.412 153.871 8.028 155.599 8.028C157.284 8.028 158.809 8.39067 160.175 9.116C161.54 9.84133 162.607 10.8867 163.375 12.252C164.164 13.596 164.559 15.164 164.559 16.956ZM155.631 11.804C154.5 11.804 153.551 12.124 152.783 12.764C152.015 13.404 151.545 14.2787 151.375 15.388H159.855C159.684 14.3 159.215 13.436 158.447 12.796C157.679 12.1347 156.74 11.804 155.631 11.804Z" fill="#EFEFEF"/>
</svg>
