<svg width="48" height="48" viewBox="0 0 48 48" fill="none" xmlns="http://www.w3.org/2000/svg">
<path fill-rule="evenodd" clip-rule="evenodd" d="M2.92893 30.9289C4.8043 29.0536 7.34783 28 10 28H24C26.6522 28 29.1957 29.0536 31.0711 30.9289C32.9464 32.8043 34 35.3478 34 38V42C34 43.1046 33.1046 44 32 44C30.8954 44 30 43.1046 30 42V38C30 36.4087 29.3679 34.8826 28.2426 33.7574C27.1174 32.6321 25.5913 32 24 32H10C8.4087 32 6.88258 32.6321 5.75736 33.7574C4.63214 34.8826 4 36.4087 4 38V42C4 43.1046 3.10457 44 2 44C0.89543 44 0 43.1046 0 42V38C0 35.3478 1.05357 32.8043 2.92893 30.9289Z" fill="#BF4A9D"/>
<path fill-rule="evenodd" clip-rule="evenodd" d="M17 8C13.6863 8 11 10.6863 11 14C11 17.3137 13.6863 20 17 20C20.3137 20 23 17.3137 23 14C23 10.6863 20.3137 8 17 8ZM7 14C7 8.47715 11.4772 4 17 4C22.5228 4 27 8.47715 27 14C27 19.5228 22.5228 24 17 24C11.4772 24 7 19.5228 7 14Z" fill="#BF4A9D"/>
<path fill-rule="evenodd" clip-rule="evenodd" d="M40 14C41.1046 14 42 14.8954 42 16V28C42 29.1046 41.1046 30 40 30C38.8954 30 38 29.1046 38 28V16C38 14.8954 38.8954 14 40 14Z" fill="#BF4A9D"/>
<path fill-rule="evenodd" clip-rule="evenodd" d="M32 22C32 20.8954 32.8954 20 34 20H46C47.1046 20 48 20.8954 48 22C48 23.1046 47.1046 24 46 24H34C32.8954 24 32 23.1046 32 22Z" fill="#BF4A9D"/>
</svg>
